# xmcd
#
# Track frame offsets:
#	183
#	16903
#	32765
#	50650
#	69368
#	86430
#	102043
#	120535
#	138860
#	152450
#	170163
#	187790
#	204173
#
# Disc length: 2964 seconds
#
# Revision: 1
# Processed by: cddbd v1.5.2PL0 Copyright (c) Steve Scherf et al.
# Submitted via: EZCDAudioConverter 8.2.2.1
#
DISCID=990b920d
DTITLE=GIAN and GIOVANI - VOL.04 - SAI DESSA CORAÇÃO [CD 2-07-800-381) GEL CHANT
DTITLE=ECLER
DYEAR=1993
DGENRE=SERTANEJO
TTITLE0=SAI DESSA CORAÇÃO (BY GILMAR SINISTRO)
TTITLE1=DE QUE PLANETA VOCÊ VEIO (BY GILMAR SINISTRO)
TTITLE2=METO O PÉ NA PORTA (BY GILMAR SINISTRO)
TTITLE3=VOCÊ VAI ME PERDOAR (BY GILMAR SINISTRO)
TTITLE4=AGORA SEI QUE EU TE AMAVA (BY GILMAR SINISTRO)
TTITLE5=MEU CORAÇÃO SÓ QUER VOCÊ (BY GILMAR SINISTRO)
TTITLE6=CANSEI DE NAMORAR A SOLIDÃO (BY GILMAR SINISTRO)
TTITLE7=FAZ DE CONTA (L'ITALIANO) (BY GILMAR SINISTRO)
TTITLE8=GRÃO DE AREIA (BY GILMAR SINISTRO)
TTITLE9=O SILÊNCIO DA LUA (BY GILMAR SINISTRO)
TTITLE10=SERÁ QUE SOU CULPADO (BY GILMAR SINISTRO)
TTITLE11=ANTES DA CHUVA VOLTAR A CAIR (BY GILMAR SINISTRO)
TTITLE12=DOIS IRMÃOS (BY GILMAR SINISTRO)
EXTD=
EXTT0=
EXTT1=
EXTT2=
EXTT3=
EXTT4=
EXTT5=
EXTT6=
EXTT7=
EXTT8=
EXTT9=
EXTT10=
EXTT11=
EXTT12=
PLAYORDER=
